<?xml version="1.0" encoding="UTF-8" standalone="no"?>
<svg
   width="1500"
   height="573.828"
   viewBox="0 0 1500 573.828"
   role="img"
   artist="Katerina Limpitsouni"
   source="https://undraw.co/"
   version="1.1"
   id="svg43"
   sodipodi:docname="analysis.svg"
   inkscape:version="1.4.2 (f4327f4, 2025-05-13)"
   xml:space="preserve"
   xmlns:inkscape="http://www.inkscape.org/namespaces/inkscape"
   xmlns:sodipodi="http://sodipodi.sourceforge.net/DTD/sodipodi-0.dtd"
   xmlns="http://www.w3.org/2000/svg"
   xmlns:svg="http://www.w3.org/2000/svg"><defs
     id="defs43" /><sodipodi:namedview
     id="namedview43"
     pagecolor="#ffffff"
     bordercolor="#000000"
     borderopacity="0.25"
     inkscape:showpageshadow="2"
     inkscape:pageopacity="0.0"
     inkscape:pagecheckerboard="0"
     inkscape:deskcolor="#d1d1d1"
     inkscape:zoom="0.35458356"
     inkscape:cx="156.52164"
     inkscape:cy="779.78798"
     inkscape:window-width="2560"
     inkscape:window-height="1360"
     inkscape:window-x="-9"
     inkscape:window-y="-9"
     inkscape:window-maximized="1"
     inkscape:current-layer="svg43" /><g
     id="g44"
     transform="matrix(1.1628645,0,0,1.1628645,303.18678,15.071167)"><rect
       x="2"
       y="36.389999"
       width="766.46997"
       height="2"
       fill="#dedfe0"
       id="rect1" /><path
       d="M 56.15,20.67 H 11.84 C 6.14,20.67 1.5,16.03 1.5,10.33 1.5,4.63 6.14,0 11.84,0 h 44.32 c 5.7,0 10.34,4.64 10.34,10.34 0,5.7 -4.64,10.34 -10.34,10.34 v 0 z"
       fill="#dedfe0"
       id="path1" /><rect
       x="2"
       y="119.06"
       width="766.46997"
       height="2"
       fill="#dedfe0"
       id="rect2" /><path
       d="M 56.15,103.34 H 11.84 C 6.14,103.34 1.5,98.7 1.5,93 1.5,87.3 6.14,82.66 11.84,82.66 h 44.32 c 5.7,0 10.34,4.64 10.34,10.34 0,5.7 -4.64,10.34 -10.34,10.34 v 0 z"
       fill="#dedfe0"
       id="path2" /><rect
       x="2"
       y="201.72"
       width="766.46997"
       height="2"
       fill="#dedfe0"
       id="rect3" /><path
       d="M 56.15,186.01 H 11.84 c -5.7,0 -10.34,-4.64 -10.34,-10.34 0,-5.7 4.64,-10.34 10.34,-10.34 h 44.32 c 5.7,0 10.34,4.64 10.34,10.34 0,5.7 -4.64,10.34 -10.34,10.34 v 0 z"
       fill="#dedfe0"
       id="path3" /><path
       d="M 276,39.39 H 2 c -1.1,0 -2,-0.9 -2,-2 0,-1.1 0.9,-2 2,-2 h 274 c 1.1,0 2,0.9 2,2 0,1.1 -0.9,2 -2,2 z"
       fill="#d8000d"
       id="path4" /><path
       d="M 419.05,122.06 H 2 c -1.1,0 -2,-0.9 -2,-2 0,-1.1 0.9,-2 2,-2 h 417.05 c 1.1,0 2,0.9 2,2 0,1.1 -0.9,2 -2,2 z"
       fill="#d8000d"
       id="path5" /><path
       d="M 139,204.72 H 2 c -1.1,0 -2,-0.9 -2,-2 0,-1.1 0.9,-2 2,-2 h 137 c 1.1,0 2,0.9 2,2 0,1.1 -0.9,2 -2,2 z"
       fill="#d8000d"
       id="path6" /><g
       id="g13"><polygon
         points="575.31,146.22 577.06,164.66 560.51,170.3 560.24,146.39 "
         fill="#f3a3a6"
         id="polygon6" /><circle
         cx="562.19"
         cy="136.42999"
         r="16.559999"
         fill="#f3a3a6"
         id="circle6" /><path
         d="m 566.71,134.74 c -2.77,-0.05 -4.62,-2.83 -5.73,-5.38 -1.11,-2.55 -2.25,-5.47 -4.82,-6.5 -2.11,-0.84 -5.75,5.03 -7.43,3.5 -1.75,-1.6 -0.15,-9.94 1.67,-11.45 1.82,-1.51 4.33,-1.83 6.69,-1.97 5.77,-0.33 11.57,0.07 17.24,1.19 3.5,0.69 7.12,1.75 9.67,4.25 3.23,3.17 4.1,8 4.38,12.52 0.29,4.62 0.07,9.47 -2.13,13.55 -2.21,4.07 -6.88,7.11 -11.41,6.13 -0.48,-2.45 -0.05,-4.97 0.1,-7.47 0.15,-2.49 -0.07,-5.18 -1.61,-7.15 -1.54,-1.97 -4.8,-2.72 -6.55,-0.94"
         fill="#2f2e43"
         id="path7" /><path
         d="m 587.14,140.25 c 1.64,-1.23 3.61,-2.27 5.65,-2.04 2.21,0.24 4.09,2.04 4.68,4.18 0.59,2.14 -0.02,4.51 -1.36,6.28 -1.34,1.77 -3.35,2.95 -5.49,3.55 -1.24,0.35 -2.59,0.5 -3.78,0 -1.75,-0.73 -2.71,-2.94 -2.05,-4.72"
         fill="#2f2e43"
         id="path8" /><g
         id="g9"><path
           id="uuid-c8983f9d-ef50-4d77-8f7b-49f8a94dcf30-2940"
           d="m 525.53,296.7 c -1.04,5.45 1.03,10.4 4.64,11.05 3.6,0.65 7.37,-3.25 8.41,-8.7 0.45,-2.17 0.35,-4.42 -0.29,-6.55 l 12.74,-85.41 -17.16,-3.03 -5.65,86.63 c -1.38,1.77 -2.31,3.83 -2.69,6.02 v 0 z"
           fill="#f3a3a6" /><path
           d="m 560.21,159.33 -11.69,0.13 c -8.25,1.34 -10.45,5.78 -12.23,13.94 -2.73,12.45 -6.21,29.04 -5.48,29.27 1.17,0.38 21.17,9.52 31.29,7.26 z"
           fill="#d8000d"
           id="path9" /></g><rect
         x="559.12"
         y="430.82999"
         width="15.56"
         height="22.07"
         transform="rotate(-0.64,566.92089,441.84625)"
         fill="#f3a3a6"
         id="rect9" /><path
         d="m 544.2,466.56 c -1.64,0.02 -3.09,0 -4.19,-0.09 -4.14,-0.33 -8.11,-3.34 -10.12,-5.1 -0.9,-0.79 -1.2,-2.07 -0.75,-3.17 v 0 c 0.32,-0.79 0.98,-1.39 1.8,-1.64 l 10.89,-3.24 17.55,-12.13 0.2,0.35 c 0.08,0.13 1.85,3.24 2.45,5.35 0.23,0.8 0.18,1.47 -0.15,1.99 -0.23,0.36 -0.55,0.57 -0.81,0.7 0.32,0.33 1.33,1 4.43,1.46 4.51,0.67 5.42,-4.02 5.45,-4.22 l 0.03,-0.16 0.13,-0.09 c 2.13,-1.41 3.44,-2.05 3.9,-1.92 0.29,0.08 0.76,0.22 2.18,12.94 0.13,0.4 1.06,3.32 0.48,6.13 -0.63,3.06 -13.96,2.15 -16.62,1.94 -0.08,0.01 -10.04,0.83 -16.87,0.9 z"
         fill="#2f2e43"
         id="path10" /><rect
         x="610.23999"
         y="415.35001"
         width="15.56"
         height="22.07"
         transform="rotate(-32.59,618.01039,426.37918)"
         fill="#f3a3a6"
         id="rect10" /><path
         d="m 601.65,462.89 c -1.83,0.02 -3.51,-0.18 -4.71,-0.38 -1.18,-0.2 -2.11,-1.12 -2.31,-2.3 v 0 c -0.15,-0.85 0.1,-1.7 0.66,-2.34 l 7.52,-8.51 8.47,-19.58 0.36,0.19 c 0.13,0.07 3.28,1.77 4.91,3.24 0.62,0.56 0.93,1.15 0.93,1.77 0,0.43 -0.16,0.78 -0.32,1.02 0.45,0.11 1.66,0.14 4.53,-1.11 4.18,-1.82 2.47,-6.28 2.39,-6.46 l -0.06,-0.15 0.07,-0.14 c 1.06,-2.32 1.84,-3.56 2.29,-3.7 0.29,-0.08 0.76,-0.22 8.7,9.82 0.32,0.27 2.66,2.25 3.65,4.94 1.08,2.93 -10.7,9.21 -13.08,10.44 -0.07,0.06 -12.38,9.21 -17.44,11.83 -2.01,1.04 -4.4,1.38 -6.58,1.4 z"
         fill="#2f2e43"
         id="path11" /><path
         d="m 583.93,246.05 -43.56,0.48 -3.5,40.56 18.96,149.54 22.24,-0.25 -9.85,-86.38 36.94,77.68 19.61,-14.06 -28.98,-72.58 c 0,0 9.36,-63.61 1.28,-79.34 -8.08,-15.73 -13.13,-15.67 -13.13,-15.67 v 0.02 z"
         fill="#2f2e43"
         id="path12" /><polygon
         points="586.35,159.04 605.63,248.28 536.44,249.05 556.21,159.38 "
         fill="#d8000d"
         id="polygon12" /><path
         id="uuid-97a43cd7-1586-4870-a70d-869ca8f8714f-2941"
         d="m 612.38,295.74 c 1.16,5.43 -0.8,10.42 -4.39,11.15 -3.59,0.73 -7.44,-3.08 -8.6,-8.51 -0.5,-2.16 -0.45,-4.41 0.14,-6.56 l -14.64,-85.11 17.09,-3.41 7.57,86.49 c 1.42,1.74 2.39,3.78 2.83,5.96 v 0 z"
         fill="#f3a3a6" /><path
         d="m 574.66,159.17 11.69,-0.13 c 8.28,1.16 10.57,5.55 12.54,13.67 3,12.39 6.85,28.89 6.13,29.14 -1.17,0.4 -20.95,9.98 -31.12,7.95 l 0.77,-50.63 z"
         fill="#d8000d"
         id="path13" /></g><path
       d="m 680.22,466.56 c 0,0.54 -0.44,0.98 -0.98,0.98 H 466.12 c -0.54,0 -0.98,-0.44 -0.98,-0.98 0,-0.54 0.44,-0.98 0.98,-0.98 h 213.12 c 0.54,0 0.98,0.44 0.98,0.98 z"
       fill="#3f3d58"
       id="path14" /></g></svg>
