<?xml version="1.0" encoding="UTF-8" standalone="no"?>
<svg
   width="1500"
   height="573.828"
   viewBox="0 0 1500 573.828"
   role="img"
   artist="Katerina Limpitsouni"
   source="https://undraw.co/"
   version="1.1"
   id="svg43"
   sodipodi:docname="processing.svg"
   inkscape:version="1.4.2 (f4327f4, 2025-05-13)"
   xml:space="preserve"
   xmlns:inkscape="http://www.inkscape.org/namespaces/inkscape"
   xmlns:sodipodi="http://sodipodi.sourceforge.net/DTD/sodipodi-0.dtd"
   xmlns="http://www.w3.org/2000/svg"
   xmlns:svg="http://www.w3.org/2000/svg"><defs
     id="defs43" /><sodipodi:namedview
     id="namedview43"
     pagecolor="#ffffff"
     bordercolor="#000000"
     borderopacity="0.25"
     inkscape:showpageshadow="2"
     inkscape:pageopacity="0.0"
     inkscape:pagecheckerboard="0"
     inkscape:deskcolor="#d1d1d1"
     inkscape:zoom="0.35458356"
     inkscape:cx="156.52164"
     inkscape:cy="779.78798"
     inkscape:window-width="2560"
     inkscape:window-height="1360"
     inkscape:window-x="-9"
     inkscape:window-y="-9"
     inkscape:window-maximized="1"
     inkscape:current-layer="svg43" /><g
     id="g44"
     transform="matrix(0.92139595,0,0,0.92139595,355.91046,5.5310439)"><circle
       cx="39.53587"
       cy="110.72662"
       r="13.63057"
       fill="#e6e6e6"
       id="circle1" /><circle
       cx="80.427567"
       cy="110.72662"
       r="13.63057"
       fill="#e6e6e6"
       id="circle2" /><circle
       cx="121.31927"
       cy="110.72662"
       r="13.63057"
       fill="#e6e6e6"
       id="circle3" /><circle
       cx="162.21097"
       cy="110.72662"
       r="13.63057"
       fill="#e6e6e6"
       id="circle4" /><circle
       cx="203.10268"
       cy="110.72662"
       r="13.63057"
       fill="#e6e6e6"
       id="circle5" /><circle
       cx="243.99437"
       cy="110.72662"
       r="13.63057"
       fill="#e6e6e6"
       id="circle6" /><circle
       cx="284.88608"
       cy="110.72662"
       r="13.63057"
       fill="#e6e6e6"
       id="circle7" /><path
       d="M 488.67447,271.93783 H 180.32909 a 5.55346,5.55346 0 0 1 -5.54693,-5.54693 v -22.10376 a 5.55345,5.55345 0 0 1 5.54693,-5.54693 h 308.34538 a 5.55346,5.55346 0 0 1 5.54693,5.54693 v 22.10376 a 5.55347,5.55347 0 0 1 -5.54693,5.54693 z M 180.32909,240.959 a 3.3318,3.3318 0 0 0 -3.32816,3.32816 v 22.10374 a 3.3318,3.3318 0 0 0 3.32816,3.32815 h 308.34538 a 3.33179,3.33179 0 0 0 3.32815,-3.32815 v -22.10376 a 3.33179,3.33179 0 0 0 -3.32815,-3.32816 z"
       transform="translate(-172.29081,-144.61233)"
       fill="#e6e6e6"
       id="path7" /><path
       d="m 246.31694,147.79938 a 3.19065,3.19065 0 0 1 3.187,3.187 V 220.049 a 3.19065,3.19065 0 0 1 -3.187,3.187 h -67.652 a 3.19065,3.19065 0 0 1 -3.187,-3.187 v -69.06257 a 3.19065,3.19065 0 0 1 3.187,-3.187 h 67.652 m 0,-3.18705 h -67.652 a 6.3741,6.3741 0 0 0 -6.3741,6.3741 V 220.049 a 6.3741,6.3741 0 0 0 6.3741,6.3741 h 67.652 a 6.37411,6.37411 0 0 0 6.3741,-6.3741 v -69.06257 a 6.37411,6.37411 0 0 0 -6.3741,-6.3741 z"
       transform="translate(-172.29081,-144.61233)"
       fill="#e6e6e6"
       id="path8" /><path
       d="m 235.76469,165.95293 h -45.13691 a 1.59353,1.59353 0 1 1 0,-3.187 h 45.13691 a 1.59353,1.59353 0 1 1 0,3.187 z"
       transform="translate(-172.29081,-144.61233)"
       fill="#d8000d"
       id="path9" /><path
       d="m 235.76469,177.23755 h -45.13691 a 1.59353,1.59353 0 1 1 0,-3.187 h 45.13691 a 1.59353,1.59353 0 1 1 0,3.187 z"
       transform="translate(-172.29081,-144.61233)"
       fill="#d8000d"
       id="path10" /><path
       d="m 235.76469,188.52139 h -45.13691 a 1.59353,1.59353 0 1 1 0,-3.187 h 45.13691 a 1.59353,1.59353 0 1 1 0,3.187 z"
       transform="translate(-172.29081,-144.61233)"
       fill="#d8000d"
       id="path11" /><path
       d="m 235.76469,199.806 h -45.13691 a 1.59353,1.59353 0 1 1 0,-3.187 h 45.13691 a 1.59353,1.59353 0 1 1 0,3.187 z"
       transform="translate(-172.29081,-144.61233)"
       fill="#d8000d"
       id="path12" /><path
       d="m 235.76469,211.09063 h -45.13691 a 1.59353,1.59353 0 1 1 0,-3.18706 h 45.13691 a 1.59353,1.59353 0 0 1 0,3.18706 z"
       transform="translate(-172.29081,-144.61233)"
       fill="#d8000d"
       id="path13" /><path
       d="m 477.37812,147.79938 a 3.19065,3.19065 0 0 1 3.187,3.187 V 220.049 a 3.19065,3.19065 0 0 1 -3.187,3.187 h -67.652 a 3.19065,3.19065 0 0 1 -3.187,-3.187 v -69.06257 a 3.19065,3.19065 0 0 1 3.187,-3.187 h 67.652 m 0,-3.18705 h -67.652 a 6.3741,6.3741 0 0 0 -6.3741,6.3741 V 220.049 a 6.3741,6.3741 0 0 0 6.3741,6.3741 h 67.652 a 6.3741,6.3741 0 0 0 6.3741,-6.3741 v -69.06257 a 6.3741,6.3741 0 0 0 -6.3741,-6.3741 z"
       transform="translate(-172.29081,-144.61233)"
       fill="#e6e6e6"
       id="path14" /><path
       d="M 466.82588,165.95293 H 421.689 a 1.59353,1.59353 0 1 1 0,-3.187 h 45.13692 a 1.59353,1.59353 0 0 1 0,3.187 z"
       transform="translate(-172.29081,-144.61233)"
       fill="#d8000d"
       id="path15" /><path
       d="M 466.82588,177.23755 H 421.689 a 1.59353,1.59353 0 1 1 0,-3.187 h 45.13692 a 1.59353,1.59353 0 0 1 0,3.187 z"
       transform="translate(-172.29081,-144.61233)"
       fill="#d8000d"
       id="path16" /><path
       d="M 466.82588,188.52139 H 421.689 a 1.59353,1.59353 0 1 1 0,-3.187 h 45.13692 a 1.59353,1.59353 0 0 1 0,3.187 z"
       transform="translate(-172.29081,-144.61233)"
       fill="#d8000d"
       id="path17" /><path
       d="M 466.82588,199.806 H 421.689 a 1.59353,1.59353 0 1 1 0,-3.187 h 45.13692 a 1.59353,1.59353 0 0 1 0,3.187 z"
       transform="translate(-172.29081,-144.61233)"
       fill="#d8000d"
       id="path18" /><path
       d="M 466.82588,211.09063 H 421.689 a 1.59353,1.59353 0 1 1 0,-3.18706 h 45.13692 a 1.59353,1.59353 0 0 1 0,3.18706 z"
       transform="translate(-172.29081,-144.61233)"
       fill="#d8000d"
       id="path19" /><path
       d="m 707.317,280.59077 a 3.19065,3.19065 0 0 1 3.187,3.187 v 69.06255 a 3.19066,3.19066 0 0 1 -3.187,3.187 h -67.652 a 3.19066,3.19066 0 0 1 -3.187,-3.187 v -69.0625 a 3.19065,3.19065 0 0 1 3.187,-3.187 h 67.652 m 0,-3.187 h -67.652 a 6.3741,6.3741 0 0 0 -6.3741,6.3741 v 69.06255 a 6.3741,6.3741 0 0 0 6.3741,6.3741 h 67.652 a 6.37411,6.37411 0 0 0 6.3741,-6.3741 v -69.06265 a 6.3741,6.3741 0 0 0 -6.3741,-6.3741 z"
       transform="translate(-172.29081,-144.61233)"
       fill="#d8000d"
       id="path20" /><path
       d="m 696.76476,298.74432 h -45.13692 a 1.59353,1.59353 0 1 1 0,-3.187 h 45.13692 a 1.59353,1.59353 0 0 1 0,3.187 z"
       transform="translate(-172.29081,-144.61233)"
       fill="#d8000d"
       id="path21" /><path
       d="m 696.76476,310.02894 h -45.13692 a 1.59353,1.59353 0 0 1 0,-3.18706 h 45.13692 a 1.59353,1.59353 0 0 1 0,3.18706 z"
       transform="translate(-172.29081,-144.61233)"
       fill="#d8000d"
       id="path22" /><path
       d="m 696.76476,321.31278 h -45.13692 a 1.59352,1.59352 0 1 1 0,-3.187 h 45.13692 a 1.59353,1.59353 0 0 1 0,3.187 z"
       transform="translate(-172.29081,-144.61233)"
       fill="#d8000d"
       id="path23" /><path
       d="m 696.76476,332.59739 h -45.13692 a 1.59353,1.59353 0 1 1 0,-3.187 h 45.13692 a 1.59353,1.59353 0 0 1 0,3.187 z"
       transform="translate(-172.29081,-144.61233)"
       fill="#d8000d"
       id="path24" /><path
       d="m 696.76476,343.882 h -45.13692 a 1.59353,1.59353 0 1 1 0,-3.187 h 45.13692 a 1.59353,1.59353 0 0 1 0,3.187 z"
       transform="translate(-172.29081,-144.61233)"
       fill="#d8000d"
       id="path25" /><path
       d="m 362.73282,226.42308 h -69.42339 a 7.08972,7.08972 0 0 1 -7.08139,-7.08138 v -49.67629 a 7.08988,7.08988 0 0 1 7.08139,-7.08216 h 69.42339 a 7.09,7.09 0 0 1 7.08217,7.08216 v 49.67629 a 7.08988,7.08988 0 0 1 -7.08217,7.08138 z M 293.30943,165.7703 a 3.89917,3.89917 0 0 0 -3.89434,3.89511 v 49.67629 a 3.89851,3.89851 0 0 0 3.89434,3.89433 h 69.42339 a 3.89917,3.89917 0 0 0 3.89511,-3.89433 v -49.67629 a 3.89983,3.89983 0 0 0 -3.89511,-3.89511 z"
       transform="translate(-172.29081,-144.61233)"
       fill="#e6e6e6"
       id="path26" /><path
       d="m 350.59,184.81246 h -45.13695 a 1.59353,1.59353 0 0 1 0,-3.187 H 350.59 a 1.59353,1.59353 0 1 1 0,3.187 z"
       transform="translate(-172.29081,-144.61233)"
       fill="#d8000d"
       id="path27" /><path
       d="m 350.59,196.09708 h -45.13695 a 1.59353,1.59353 0 0 1 0,-3.187 H 350.59 a 1.59353,1.59353 0 1 1 0,3.187 z"
       transform="translate(-172.29081,-144.61233)"
       fill="#d8000d"
       id="path28" /><path
       d="m 350.59,207.38092 h -45.13695 a 1.59353,1.59353 0 0 1 0,-3.187 H 350.59 a 1.59353,1.59353 0 1 1 0,3.187 z"
       transform="translate(-172.29081,-144.61233)"
       fill="#d8000d"
       id="path29" /><path
       d="M 593.09111,253.95025 526.41486,234.6141 a 7.08971,7.08971 0 0 1 -4.82882,-8.77351 l 13.83608,-47.71054 a 7.08988,7.08988 0 0 1 8.77372,-4.82958 l 66.67625,19.33615 a 7.09,7.09 0 0 1 4.82935,8.77447 l -13.83608,47.71055 a 7.08988,7.08988 0 0 1 -8.77425,4.82861 z m -49.78294,-77.58884 a 3.89916,3.89916 0 0 0 -4.82511,2.65631 L 524.647,226.72827 a 3.89851,3.89851 0 0 0 2.65557,4.8249 l 66.67624,19.33614 a 3.89918,3.89918 0 0 0 4.82565,-2.65535 l 13.83608,-47.71054 a 3.89985,3.89985 0 0 0 -2.65609,-4.82587 z"
       transform="translate(-172.29081,-144.61233)"
       fill="#e6e6e6"
       id="path30" /><path
       d="m 593.01835,210.60411 -43.3508,-12.57175 a 1.59353,1.59353 0 0 1 0.88767,-3.06094 l 43.35078,12.57176 a 1.5935235,1.5935235 0 1 1 -0.88768,3.06093 z"
       transform="translate(-172.29081,-144.61233)"
       fill="#d8000d"
       id="path31" /><path
       d="M 589.87531,221.44219 546.5245,208.87043 a 1.5935221,1.5935221 0 1 1 0.88767,-3.06093 l 43.35083,12.57175 a 1.59353,1.59353 0 0 1 -0.88767,3.06094 z"
       transform="translate(-172.29081,-144.61233)"
       fill="#d8000d"
       id="path32" /><path
       d="m 586.73248,232.27951 -43.35081,-12.57175 a 1.59353,1.59353 0 0 1 0.88767,-3.06094 l 43.35081,12.57176 a 1.5935221,1.5935221 0 0 1 -0.88767,3.06093 z"
       transform="translate(-172.29081,-144.61233)"
       fill="#d8000d"
       id="path33" /><rect
       x="156.1059"
       y="607.77533"
       width="699.3125"
       height="3"
       fill="#e6e6e6"
       id="rect33" /><polygon
       points="448.421,603.085 452.276,552.973 558.285,552.973 562.14,603.085 "
       fill="#e6e6e6"
       id="polygon33" /><rect
       x="442.63879"
       y="597.30341"
       width="127.21043"
       height="11.5646"
       fill="#e6e6e6"
       id="rect34" /><path
       d="M 895.37073,374.74021 H 460.73514 a 11.56458,11.56458 0 0 0 -11.56458,11.56458 v 0 265.02171 H 906.93533 V 386.30479 a 11.56457,11.56457 0 0 0 -11.56456,-11.56458 z"
       transform="translate(-172.29081,-144.61233)"
       fill="#3f3d56"
       id="path34" /><path
       d="m 449.17056,651.3265 v 43.36719 a 11.56457,11.56457 0 0 0 11.56458,11.56457 h 434.63559 a 11.56459,11.56459 0 0 0 11.5646,-11.56457 v 0 -43.36719 z"
       transform="translate(-172.29081,-144.61233)"
       fill="#e6e6e6"
       id="path35" /><rect
       x="300.00891"
       y="254.22076"
       width="412.47015"
       height="231.29169"
       fill="#e6e6e6"
       id="rect35" /><circle
       cx="506.24399"
       cy="533.69818"
       r="11.56459"
       fill="#3f3d56"
       id="circle35" /><circle
       cx="312.86987"
       cy="261.79535"
       r="2.1946599"
       fill="#ffffff"
       id="circle36" /><circle
       cx="321.20026"
       cy="261.79535"
       r="2.1946599"
       fill="#ffffff"
       id="circle37" /><circle
       cx="329.53064"
       cy="261.79535"
       r="2.1946599"
       fill="#ffffff"
       id="circle38" /><rect
       x="310.6752"
       y="269.25275"
       width="389.91608"
       height="194.24707"
       fill="#ffffff"
       id="rect38" /><path
       d="m 508.885,443.41111 a 1.37973,1.37973 0 0 0 -1.37842,1.37842 v 69.67578 a 1.37973,1.37973 0 0 0 1.37842,1.37841 h 80.4643 a 1.37973,1.37973 0 0 0 1.37842,-1.37841 v -69.67578 a 1.37973,1.37973 0 0 0 -1.37842,-1.37842 z"
       transform="translate(-172.29081,-144.61233)"
       fill="#e6e6e6"
       id="path38" /><path
       d="m 638.08075,443.63523 a 1.37984,1.37984 0 0 0 -1.37891,1.37842 v 69.45166 a 1.37984,1.37984 0 0 0 1.37891,1.37841 h 80.208 a 1.37963,1.37963 0 0 0 1.37793,-1.37841 v -69.45166 a 1.37963,1.37963 0 0 0 -1.37793,-1.37842 z"
       transform="translate(-172.29081,-144.61233)"
       fill="#e6e6e6"
       id="path39" /><path
       d="m 765.92157,442.9072 a 1.37963,1.37963 0 0 0 -1.37793,1.37842 v 70.17969 a 1.37962,1.37962 0 0 0 1.37793,1.37841 h 81.042 a 1.37962,1.37962 0 0 0 1.37793,-1.37841 v -70.17969 a 1.37963,1.37963 0 0 0 -1.37793,-1.37842 z"
       transform="translate(-172.29081,-144.61233)"
       fill="#e6e6e6"
       id="path40" /><path
       d="m 510.35614,550.333 a 2.84986,2.84986 0 0 0 0,5.69971 h 75.65234 a 2.84986,2.84986 0 0 0 0,-5.69971 z"
       transform="translate(-172.29081,-144.61233)"
       fill="#e6e6e6"
       id="path41" /><path
       d="m 510.35614,563.88865 a 2.8501,2.8501 0 0 0 0,5.70019 h 34.062 a 2.8501,2.8501 0 0 0 0,-5.70019 z"
       transform="translate(-172.29081,-144.61233)"
       fill="#d8000d"
       id="path42" /><path
       d="m 640.94012,550.333 a 2.84986,2.84986 0 0 0 0,5.69971 h 75.65235 a 2.84986,2.84986 0 0 0 0,-5.69971 z"
       transform="translate(-172.29081,-144.61233)"
       fill="#e6e6e6"
       id="path43" /><path
       d="m 640.94012,563.88865 a 2.8501,2.8501 0 0 0 0,5.70019 h 34.0625 a 2.8501,2.8501 0 0 0 0,-5.70019 z"
       transform="translate(-172.29081,-144.61233)"
       fill="#d8000d"
       id="path44" /><path
       d="m 768.26044,550.333 a 2.84986,2.84986 0 0 0 0,5.69971 h 75.65234 a 2.84986,2.84986 0 0 0 0,-5.69971 z"
       transform="translate(-172.29081,-144.61233)"
       fill="#e6e6e6"
       id="path45" /><path
       d="m 510.35614,536.333 a 2.84986,2.84986 0 0 0 0,5.69971 h 75.65234 a 2.84986,2.84986 0 0 0 0,-5.69971 z"
       transform="translate(-172.29081,-144.61233)"
       fill="#e6e6e6"
       id="path46" /><path
       d="m 640.94012,536.333 a 2.84986,2.84986 0 0 0 0,5.69971 h 75.65235 a 2.84986,2.84986 0 0 0 0,-5.69971 z"
       transform="translate(-172.29081,-144.61233)"
       fill="#e6e6e6"
       id="path47" /><path
       d="m 768.26044,536.333 a 2.84986,2.84986 0 0 0 0,5.69971 h 75.65234 a 2.84986,2.84986 0 0 0 0,-5.69971 z"
       transform="translate(-172.29081,-144.61233)"
       fill="#e6e6e6"
       id="path48" /><path
       d="m 768.26044,563.88865 a 2.8501,2.8501 0 0 0 0,5.70019 H 802.322 a 2.8501,2.8501 0 0 0 0,-5.70019 z"
       transform="translate(-172.29081,-144.61233)"
       fill="#d8000d"
       id="path49" /></g></svg>
