<?xml version="1.0" encoding="UTF-8" standalone="no"?>
<svg
   width="1500"
   height="573.828"
   viewBox="0 0 1500 573.828"
   role="img"
   artist="Katerina Limpitsouni"
   source="https://undraw.co/"
   version="1.1"
   id="svg43"
   sodipodi:docname="undraw_web-shopping_xd5k.svg"
   inkscape:version="1.4.2 (f4327f4, 2025-05-13)"
   xmlns:inkscape="http://www.inkscape.org/namespaces/inkscape"
   xmlns:sodipodi="http://sodipodi.sourceforge.net/DTD/sodipodi-0.dtd"
   xmlns="http://www.w3.org/2000/svg"
   xmlns:svg="http://www.w3.org/2000/svg">
  <defs
     id="defs43" />
  <sodipodi:namedview
     id="namedview43"
     pagecolor="#ffffff"
     bordercolor="#000000"
     borderopacity="0.25"
     inkscape:showpageshadow="2"
     inkscape:pageopacity="0.0"
     inkscape:pagecheckerboard="0"
     inkscape:deskcolor="#d1d1d1"
     inkscape:zoom="0.35458356"
     inkscape:cx="156.52164"
     inkscape:cy="779.78798"
     inkscape:window-width="2560"
     inkscape:window-height="1360"
     inkscape:window-x="-9"
     inkscape:window-y="-9"
     inkscape:window-maximized="1"
     inkscape:current-layer="svg43" />
  <g
     id="g44"
     transform="translate(350.01774,-4.9853516e-4)">
    <g
       transform="translate(-520.438,-224.258)"
       id="g43">
      <rect
         width="12.541"
         height="16.603001"
         transform="translate(1165.727,768.204)"
         fill="#e49497"
         id="rect1"
         x="0"
         y="0" />
      <path
         d="M 173.286,432.384 A 4.1,4.1 0 0 0 175,429.5 a 5.283,5.283 0 0 0 -1.773,-3.811 c -0.027,-0.381 -0.417,-5.14 -1.294,-5.991 a 4.148,4.148 0 0 0 -0.213,-3.04 2.134,2.134 0 0 0 -1.64,-0.9 h -0.035 l -0.018,0.027 c -0.018,0.035 -2.136,3.714 -5.318,4.033 -1.826,0.186 -3.652,-0.753 -5.433,-2.792 -0.062,-0.151 -0.567,-2.632 -0.9,-4.272 V 412.7 l -17.363,9.12 -10.139,2.81 a 2.95,2.95 0 0 0 -0.487,5.5 l 4.919,2.366 a 15.429,15.429 0 0 0 6.621,1.507 H 168.6 a 7.445,7.445 0 0 0 4.68,-1.622 z"
         transform="translate(1007.526,362.217)"
         fill="#090814"
         id="path1" />
      <rect
         width="11.584"
         height="11.584"
         transform="matrix(0.805,-0.593,0.593,0.805,1296.74,766.98)"
         fill="#e49497"
         id="rect2"
         x="0"
         y="0" />
      <path
         d="m 54.715,392.628 a 3.782,3.782 0 0 0 -0.3,-3.086 4.854,4.854 0 0 0 -3.406,-1.858 c -0.229,-0.27 -3.127,-3.586 -4.241,-3.741 a 3.806,3.806 0 0 0 -1.817,-2.145 1.953,1.953 0 0 0 -1.711,0.237 l -0.025,0.016 v 0.033 c 0,0 0.45,3.93 -1.744,5.919 -1.253,1.138 -3.127,1.441 -5.567,0.9 -0.131,-0.074 -1.867,-1.646 -3,-2.693 l -0.049,-0.041 -7.9,16.292 -6,7.646 a 2.727,2.727 0 0 0 -0.049,3.3 2.757,2.757 0 0 0 2.7,1.064 l 4.953,-0.941 a 14.282,14.282 0 0 0 5.755,-2.505 L 52.136,396.41 a 6.909,6.909 0 0 0 2.6,-3.774 z"
         transform="translate(1265.489,382.685)"
         fill="#090814"
         id="path2" />
      <g
         transform="translate(520.438,224.258)"
         id="g21">
        <path
           d="m 0,0 h 585.859 v 369.758 a 5.452,5.452 0 0 1 -5.452,5.452 H 5.452 A 5.452,5.452 0 0 1 0,369.758 Z"
           transform="translate(0.25,0.332)"
           fill="#e6e6e6"
           id="path3" />
        <path
           d="m 3.635,0 h 545.084 a 3.635,3.635 0 0 1 3.635,3.635 v 298.682 a 3.635,3.635 0 0 1 -3.635,3.635 H 3.635 A 3.635,3.635 0 0 1 0,302.317 V 3.635 A 3.635,3.635 0 0 1 3.635,0 Z"
           transform="translate(17.003,47.392)"
           fill="#ffffff"
           id="path4" />
        <path
           d="m 5.452,0 h 574.955 a 5.452,5.452 0 0 1 5.452,5.452 V 24.889 H 0 V 5.452 A 5.452,5.452 0 0 1 5.452,0 Z"
           fill="#d8000d"
           id="path5" />
        <path
           d="M 4.613,0 A 4.613,4.613 0 1 1 0,4.613 4.613,4.613 0 0 1 4.613,0 Z"
           transform="translate(13.883,8.112)"
           fill="#ffffff"
           id="path6" />
        <path
           d="M 4.613,0 A 4.613,4.613 0 1 1 0,4.613 4.613,4.613 0 0 1 4.613,0 Z"
           transform="translate(31.393,8.112)"
           fill="#ffffff"
           id="path7" />
        <path
           d="M 4.613,0 A 4.613,4.613 0 1 1 0,4.613 4.613,4.613 0 0 1 4.613,0 Z"
           transform="translate(48.903,8.112)"
           fill="#ffffff"
           id="path8" />
        <path
           d="M 3.635,0 H 104.4 a 3.635,3.635 0 0 1 3.635,3.635 v 109.936 a 3.635,3.635 0 0 1 -3.635,3.635 H 3.635 A 3.635,3.635 0 0 1 0,113.571 V 3.635 A 3.635,3.635 0 0 1 3.635,0 Z"
           transform="translate(84.963,72.557)"
           fill="#e6e6e6"
           id="path9" />
        <path
           d="M 3.635,0 H 104.4 a 3.635,3.635 0 0 1 3.635,3.635 v 109.936 a 3.635,3.635 0 0 1 -3.635,3.635 H 3.635 A 3.635,3.635 0 0 1 0,113.571 V 3.635 A 3.635,3.635 0 0 1 3.635,0 Z"
           transform="translate(239.163,72.557)"
           fill="#e6e6e6"
           id="path10" />
        <path
           d="M 3.635,0 H 104.4 a 3.635,3.635 0 0 1 3.635,3.635 v 109.936 a 3.635,3.635 0 0 1 -3.635,3.635 H 3.635 A 3.635,3.635 0 0 1 0,113.571 V 3.635 A 3.635,3.635 0 0 1 3.635,0 Z"
           transform="translate(393.361,72.557)"
           fill="#e6e6e6"
           id="path11" />
        <path
           d="M 3.635,0 H 104.4 a 3.635,3.635 0 0 1 3.635,3.635 v 109.936 a 3.635,3.635 0 0 1 -3.635,3.635 H 3.635 A 3.635,3.635 0 0 1 0,113.571 V 3.635 A 3.635,3.635 0 0 1 3.635,0 Z"
           transform="translate(84.963,210.977)"
           fill="#e6e6e6"
           id="path12" />
        <path
           d="M 3.635,0 H 104.4 a 3.635,3.635 0 0 1 3.635,3.635 v 109.936 a 3.635,3.635 0 0 1 -3.635,3.635 H 3.635 A 3.635,3.635 0 0 1 0,113.571 V 3.635 A 3.635,3.635 0 0 1 3.635,0 Z"
           transform="translate(239.163,210.977)"
           fill="#e6e6e6"
           id="path13" />
        <path
           d="M 3.635,0 H 104.4 a 3.635,3.635 0 0 1 3.635,3.635 v 109.936 a 3.635,3.635 0 0 1 -3.635,3.635 H 3.635 A 3.635,3.635 0 0 1 0,113.571 V 3.635 A 3.635,3.635 0 0 1 3.635,0 Z"
           transform="translate(393.361,210.977)"
           fill="#e6e6e6"
           id="path14" />
        <path
           d="m 451.257,398.8 19.739,-7.8 2.3,39.019 c 0,0 4.131,11.935 2.754,16.526 0,0 0.918,7.8 -1.378,8.263 -2.296,0.463 -8.723,1.378 -9.178,0.918 -0.455,-0.46 -0.459,-1.836 -0.459,-1.836 0,0 -4.591,3.213 -5.05,6.885 0,0 -19.28,5.967 -19.739,0.459 -0.459,-5.508 9.639,-10.1 9.639,-10.1 l 7.8,-11.935 z"
           transform="translate(-185.983,-157.699)"
           fill="#ffffff"
           id="path15" />
        <path
           d="m 497.229,398.8 19.736,-7.8 2.3,39.019 c 0,0 4.131,11.935 2.754,16.526 0,0 0.918,7.8 -1.378,8.263 -2.296,0.463 -8.723,1.378 -9.178,0.918 -0.455,-0.46 -0.459,-1.836 -0.459,-1.836 0,0 -4.591,3.213 -5.05,6.885 0,0 -19.28,5.967 -19.739,0.459 -0.459,-5.508 9.639,-10.1 9.639,-10.1 l 7.8,-11.935 z"
           transform="translate(-190.18,-157.699)"
           fill="#ffffff"
           id="path16" />
        <path
           d="m 496.516,233.611 c 0,0 -4.2,11.744 0.667,17.04 l -4.06,13.951 c 0,0 14.425,43.274 10.3,49.319 0,0 -15.386,7.693 -46.162,-2.748 l 12.5,-48.494 -1.786,-20.469 2.473,-9.617 5.495,-0.545 c 0,0 -3.3,12.364 2.748,14.287 6.048,1.923 11.941,-13.978 11.941,-13.978 z"
           transform="translate(-187.539,-143.186)"
           fill="#d8000d"
           id="path17" />
        <path
           d="m 286.858,309.346 5.3,2.17 25.314,-33.27 7.956,39.056 5.3,-0.964 c 3.4,-33.672 6.179,-68.016 2.772,-84.26 l -19.649,-0.844 -8.92,28.452 -4.34,19.287 z"
           transform="translate(-171.98,-143.112)"
           fill="#ffffff"
           id="path18" />
        <path
           d="m 640.422,231.87 c 0,0 -7.239,10.063 -6.885,14.124 0.354,4.061 4.943,70.267 4.943,70.267 l 10.77,0.53 -3.18,-47.668 2.648,-12.888 6.533,60.027 13.242,0.353 -11.829,-77.858 -2.3,-6.885 z"
           transform="translate(-203.632,-143.17)"
           fill="#ffffff"
           id="path19" />
        <path
           d="m 679.336,409.368 c -1.922,-2.306 -5.226,-3.553 -8.4,-4.227 0.091,-0.288 -9.649,-2.3 -9.814,-1.886 l -3.672,-2.925 -11.283,5.858 -6.34,-4.316 -2.945,1.045 c 0.12,-0.52 -9.142,1.085 -9.142,1.085 -1.769,0.064 -4.029,0.174 -6.559,0.369 -8.859,0.682 -9.541,23.626 -9.541,23.626 a 36.213,36.213 0 0 1 12.824,-2.685 l 2.394,27.443 c 12.316,-1.056 25.232,0.173 38.62,3.18 l 6.278,-21.572 14.62,-5.686 c 0,0 -2.497,-13.858 -7.04,-19.309 z"
           transform="translate(-201.634,-158.551)"
           fill="#d8000d"
           id="path20" />
        <path
           d="m 335.274,395.147 c -1.584,-1.9 -4.305,-2.928 -6.92,-3.483 0.078,-0.238 -7.95,-1.9 -8.087,-1.554 l -3.026,-2.41 -9.3,4.827 -5.224,-3.556 -2.426,0.861 c 0.1,-0.428 -7.533,0.893 -7.533,0.893 -1.454,0.053 -3.32,0.144 -5.4,0.3 -7.3,0.562 -7.861,19.465 -7.861,19.465 a 29.838,29.838 0 0 1 10.567,-2.213 l 1.973,55.352 a 104.6,104.6 0 0 1 31.818,2.621 l 5.172,-50.514 12.047,-4.684 c 0,0 -2.057,-11.412 -5.8,-15.905 z"
           transform="translate(-171.308,-157.398)"
           fill="#ffffff"
           id="path21" />
      </g>
      <path
         d="m 909.888,406.722 h 51.8 v -27.715 a 25.9,25.9 0 1 0 -51.8,0 z"
         transform="translate(291.573,70.018)"
         fill="#2f2e41"
         id="path22" />
      <path
         d="m 944.609,535.111 0.86,4.3 c 0,0 2.579,2.579 1.289,3.868 -1.29,1.289 -0.86,7.308 -0.86,7.308 0.721,10.973 15.06,72.638 17.624,84.681 0,0 19.773,12.9 35.247,38.256 15.474,25.356 15.9,31.809 15.9,31.809 l -17.191,7.309 -42.978,-52.015 c 0,0 -12.036,-7.308 -16.335,-13.755 -4.299,-6.447 -30.953,-73.072 -30.953,-73.072 l -15.048,69.636 c 0,0 0.86,25.361 -3.009,41.7 a 174.944,174.944 0 0 0 -4.3,31.379 l -20.2,-2.149 c 0,0 1.289,-61.039 3.439,-67.487 0,0 -9.027,-74.364 9.027,-104.024 l 14.55,-38.79 14.25,-5.485 z"
         transform="translate(295.703,56.737)"
         fill="#2f2e41"
         id="path23" />
      <path
         d="M 1.73,0 H 18.382 L 20.9,23.626 H 0 Z"
         transform="translate(1217.01,467.554)"
         fill="#ed9da0"
         id="path24" />
      <path
         d="m 936.638,360.565 c -27.122,0.463 -27.117,40.807 0,41.266 27.12,-0.464 27.116,-40.807 0,-41.266 z"
         transform="translate(290.987,69.337)"
         fill="#ed9da0"
         id="path25" />
      <path
         d="m 915.711,379.63 h 4.61 l 1.255,-3.139 -0.628,3.139 h 25.212 l -0.818,-6.567 6.128,6.567 h 6.113 v -3.558 a 20.935,20.935 0 1 0 -41.869,-0.03 v 0.03 z"
         transform="translate(291.041,69.834)"
         fill="#2f2e41"
         id="path26" />
      <path
         d="m 905.939,419.194 37.876,-0.4 13.375,0.819 -10.828,109.873 c 0,0 -59.937,-3.163 -59.974,-21.458 L 892,491.771 Z"
         transform="translate(293.718,64.021)"
         fill="#3f3d56"
         id="path27" />
      <path
         d="m 966.535,548.641 a 8.521,8.521 0 0 1 2.454,-12.833 l -2.227,-19.343 11.425,-4.221 2.762,27.362 a 8.567,8.567 0 0 1 -14.413,9.035 z"
         transform="translate(286.576,55.489)"
         fill="#ed9da0"
         id="path28" />
      <path
         d="m 956.248,429.156 6.743,-9.426 c 0,0 4.615,-1.024 10.067,5.337 5.452,6.361 8.633,85.872 8.633,85.872 l -19.991,4.543 -11.813,-56.339 z"
         transform="translate(287.921,63.941)"
         fill="#3f3d56"
         id="path29" />
      <path
         d="m 672.135,389.525 1.487,70.639 45.73,24.167 83.28,-14.872 2.045,-73.428 -52.794,-18.59 z"
         transform="translate(459.069,189.796)"
         fill="#ffffff"
         id="path30" />
      <path
         d="m 879.6,619.276 -46.332,-24.484 -1.51,-71.711 80.563,-12.207 0.172,0.06 53.3,18.767 -2.076,74.555 z m -44.895,-25.376 45.128,23.848 82.448,-14.723 2.013,-72.3 -52.12,-18.352 -78.935,11.96 z"
         transform="translate(298.707,55.614)"
         fill="#cacaca"
         id="path31" />
      <path
         d="m 718.3,409.823 -0.179,-0.071 -46.287,-18.4 0.539,-1.357 46.109,18.332 86.065,-11.87 0.2,1.447 z"
         transform="translate(459.097,188.65)"
         fill="#cacaca"
         id="path32" />
      <rect
         width="1.461"
         height="76.407997"
         transform="rotate(-0.697,49723.798,-96433.875)"
         fill="#cacaca"
         id="rect32"
         x="0"
         y="0" />
      <path
         d="m 714.859,405.826 -16.685,-6.764 80.324,-12.8 16.686,6.763 z"
         transform="translate(456.692,188.991)"
         fill="#cacaca"
         id="path33" />
      <rect
         width="1.461"
         height="21.069"
         transform="rotate(-66.705,1022.1341,-558.53151)"
         fill="#cacaca"
         id="rect33"
         x="0"
         y="0" />
      <rect
         width="1.461"
         height="21.069"
         transform="rotate(-66.705,1044.8226,-553.1389)"
         fill="#d8000d"
         id="rect34"
         x="0"
         y="0" />
      <path
         d="m 392.135,497.525 1.487,70.639 45.73,24.167 83.28,-14.872 2.045,-73.428 -52.794,-18.59 z"
         transform="translate(484.634,179.935)"
         fill="#ffffff"
         id="path34" />
      <path
         d="m 599.6,727.276 -46.332,-24.484 -1.51,-71.711 80.563,-12.207 0.172,0.06 53.3,18.767 -2.076,74.555 z m -44.895,-25.376 45.128,23.848 82.448,-14.723 2.013,-72.3 -52.12,-18.352 -78.935,11.96 z"
         transform="translate(324.272,45.753)"
         fill="#cacaca"
         id="path35" />
      <path
         d="m 438.3,517.823 -0.179,-0.071 -46.287,-18.4 0.539,-1.357 46.109,18.332 86.065,-11.87 0.2,1.447 z"
         transform="translate(484.661,178.79)"
         fill="#cacaca"
         id="path36" />
      <rect
         width="1.461"
         height="76.407997"
         transform="rotate(-0.697,57663.923,-75469.472)"
         fill="#cacaca"
         id="rect36"
         x="0"
         y="0" />
      <path
         d="m 430.818,512.163 -12.644,-5.1 80.324,-12.8 12.643,5.1 z"
         transform="translate(482.257,179.13)"
         fill="#cacaca"
         id="path37" />
      <rect
         width="1.461"
         height="21.069"
         transform="rotate(-66.705,969.46782,-316.17654)"
         fill="#cacaca"
         id="rect37"
         x="0"
         y="0" />
      <rect
         width="1.461"
         height="21.069"
         transform="rotate(-66.705,992.15635,-310.78394)"
         fill="#d8000d"
         id="rect38"
         x="0"
         y="0" />
      <path
         d="m 479.563,507.988 1.727,82 53.085,28.053 96.675,-17.263 2.374,-85.239 -61.285,-21.58 z"
         transform="translate(476.652,179.158)"
         fill="#d8000d"
         id="path38" />
      <path
         d="m 694.587,753.1 -53.787,-28.424 -1.753,-83.244 93.521,-14.17 0.2,0.07 61.868,21.785 -2.41,86.546 z m -52.11,-29.456 52.387,27.684 95.709,-17.091 2.337,-83.931 -60.5,-21.3 -91.63,13.883 z"
         transform="translate(316.301,44.987)"
         fill="#d6d6e3"
         id="path39" />
      <path
         d="m 533.158,531.552 -0.207,-0.083 -53.733,-21.363 0.626,-1.576 53.525,21.281 99.907,-13.779 0.232,1.679 z"
         transform="translate(476.683,177.827)"
         fill="#d6d6e3"
         id="path40" />
      <rect
         width="1.696"
         height="88.697998"
         transform="rotate(-0.697,58746.923,-82596.18)"
         fill="#d6d6e3"
         id="rect40"
         x="0"
         y="0" />
      <path
         d="m 525.327,525.02 -15.537,-5.96 93.243,-14.86 15.538,5.96 z"
         transform="translate(473.892,178.223)"
         fill="#d6d6e3"
         id="path41" />
      <rect
         width="1.6950001"
         height="24.458"
         transform="rotate(-66.705,1019.193,-369.895)"
         fill="#d6d6e3"
         id="rect41"
         x="0"
         y="0" />
      <rect
         width="1.6950001"
         height="24.458"
         transform="rotate(-66.705,1045.5298,-363.63525)"
         fill="#d6d6e3"
         id="rect42"
         x="0"
         y="0" />
      <path
         d="m 859.874,534.047 a 8.521,8.521 0 0 0 3.338,-12.631 l 10.379,-16.475 -8.473,-8.749 -14.331,23.471 a 8.567,8.567 0 0 0 9.087,14.385 z"
         transform="translate(297.258,56.954)"
         fill="#ed9da0"
         id="path42" />
      <path
         d="m 911.548,423.508 -7.436,-4.9 c 0,0 -5.738,1.287 -11.841,13.025 -6.103,11.738 -30.714,64.219 -30.714,64.219 l 10.117,10.268 26.988,-41.172 z"
         transform="translate(295.986,64.038)"
         fill="#3f3d56"
         id="path43" />
    </g>
  </g>
</svg>
