<?xml version="1.0" encoding="UTF-8" standalone="no"?>
<svg
   width="1500"
   height="398.62457"
   viewBox="0 0 1500 398.62458"
   role="img"
   artist="Katerina Limpitsouni"
   source="https://undraw.co/"
   version="1.1"
   id="svg39"
   sodipodi:docname="undraw_statistics_z6y6.svg"
   inkscape:version="1.4.2 (f4327f4, 2025-05-13)"
   xmlns:inkscape="http://www.inkscape.org/namespaces/inkscape"
   xmlns:sodipodi="http://sodipodi.sourceforge.net/DTD/sodipodi-0.dtd"
   xmlns="http://www.w3.org/2000/svg"
   xmlns:svg="http://www.w3.org/2000/svg">
  <defs
     id="defs39" />
  <sodipodi:namedview
     id="namedview39"
     pagecolor="#ffffff"
     bordercolor="#000000"
     borderopacity="0.25"
     inkscape:showpageshadow="2"
     inkscape:pageopacity="0.0"
     inkscape:pagecheckerboard="0"
     inkscape:deskcolor="#d1d1d1"
     showgrid="true"
     inkscape:zoom="1.0208602"
     inkscape:cx="555.90375"
     inkscape:cy="233.62651"
     inkscape:window-width="2560"
     inkscape:window-height="1360"
     inkscape:window-x="-9"
     inkscape:window-y="-9"
     inkscape:window-maximized="1"
     inkscape:current-layer="svg39" />
  <g
     id="g41"
     transform="translate(-9.5859375,-1.7466898)">
    <path
       d="m 993.4549,81.780712 h -57.99996 a 4.50508,4.50508 0 0 1 -4.5,-4.5 v -21 a 33.5,33.5 0 1 1 66.99996,0 v 21 a 4.50508,4.50508 0 0 1 -4.5,4.5 z"
       fill="#2f2e41"
       id="path1" />
    <polygon
       points="558.434,340.615 544.851,385.91 533.108,382.388 541.102,335.418 "
       fill="#a0616a"
       id="polygon1"
       transform="translate(358.39858,1.9591322)" />
    <path
       d="m 902.83086,400.15049 -37.86469,-11.35461 0.14361,-0.47894 a 15.38606,15.38606 0 0 1 19.15719,-10.319 l 9.3e-4,2.8e-4 23.12635,6.93507 z"
       fill="#2f2e41"
       id="path2" />
    <polygon
       points="681.638,339.02 681.636,386.307 669.376,386.307 663.544,339.019 "
       fill="#a0616a"
       id="polygon2"
       transform="translate(358.39858,1.9591322)" />
    <path
       d="m 1043.1608,400.15049 -39.5305,-10e-4 v -0.5 a 15.38605,15.38605 0 0 1 15.3864,-15.38623 v 0 l 24.1438,10e-4 z"
       fill="#2f2e41"
       id="path3" />
    <circle
       cx="965.80139"
       cy="57.012993"
       r="24.561029"
       fill="#a0616a"
       id="circle3" />
    <path
       d="m 936.50758,360.42133 a 5.21561,5.21561 0 0 1 -1.31177,-0.16741 l -49.22018,-12.79774 a 5.285,5.285 0 0 1 -3.62169,-6.95672 c 29.84067,-80.26083 54.276,-149.49319 51.00007,-183.79633 a 66.14142,66.14142 0 0 1 -6.8991,-30.01353 l 0.3503,-34.680388 a 6.79218,6.79218 0 0 1 8.29371,-6.55654 l 55.06578,12.46751 0.3119,1.03887 a 72.24969,72.24969 0 0 1 -1.26216,45.078198 c 32.46246,29.30719 54.22876,125.52134 66.78366,201.199 a 5.31154,5.31154 0 0 1 -3.2985,5.79517 l -0.1554,0.0378 -38.6076,3.816 a 5.28352,5.28352 0 0 1 -6.8943,-3.42274 l -33.17198,-109.466 -32.259,114.57543 a 5.3213,5.3213 0 0 1 -5.10374,3.84938 z"
       fill="#2f2e41"
       id="path4" />
    <path
       d="m 989.14708,57.780712 h -32.4265 a 2.5036,2.5036 0 0 1 -2.48071,-2.19043 l -0.41992,-3.3584 a 1.49989,1.49989 0 0 0 -2.84766,-0.44824 l -2.12573,4.55469 a 2.50968,2.50968 0 0 1 -2.26538,1.44238 h -4.9256 a 2.49954,2.49954 0 0 1 -2.48877,-2.73828 l 1.94214,-20.28614 a 2.51923,2.51923 0 0 1 1.42871,-2.03613 c 14.85034,-6.93262 29.90967,-6.92383 44.76,0.0264 a 2.5036,2.5036 0 0 1 1.41455,1.91894 l 2.90939,20.25977 a 2.49931,2.49931 0 0 1 -2.47457,2.85547 z"
       fill="#2f2e41"
       id="path5" />
    <path
       d="M 915.98146,366.73514 608.06458,340.88542 a 8.50951,8.50951 0 0 1 -7.75913,-9.18128 l 11.62819,-138.51272 a 8.5095,8.5095 0 0 1 9.18128,-7.75913 l 307.91686,25.84967 a 8.50951,8.50951 0 0 1 7.75913,9.18128 l -11.62817,138.51277 a 8.50951,8.50951 0 0 1 -9.18128,7.75913 z"
       fill="#cccccc"
       id="path6" />
    <path
       d="M 911.75189,357.34842 613.79997,332.33528 a 4.50507,4.50507 0 0 1 -4.10777,-4.86067 l 10.79161,-128.54782 a 4.50507,4.50507 0 0 1 4.86068,-4.10777 l 297.95191,25.01312 a 4.50508,4.50508 0 0 1 4.10778,4.86067 l -10.7916,128.54782 a 4.50506,4.50506 0 0 1 -4.86069,4.10779 z"
       fill="#ffffff"
       id="path7" />
    <path
       d="m 835.0034,309.09233 q 0.0287,0.002 0.0575,0.003 a 38.65969,38.65969 0 0 0 6.45519,-76.8932 0.88189,0.88189 0 0 0 -0.68248,0.18238 0.87262,0.87262 0 0 0 -0.33069,0.6167 l -6.30778,75.13717 a 0.885,0.885 0 0 0 0.80825,0.954 z"
       fill="#3f3d56"
       id="path8" />
    <path
       d="m 809.45284,242.37242 a 1.13844,1.13844 0 0 1 0.77221,0.39829 l 23.96375,28.356 a 1.12611,1.12611 0 0 1 0.26383,0.82644 l -3.0183,35.95349 a 1.12217,1.12217 0 0 1 -0.42519,0.79279 1.13933,1.13933 0 0 1 -0.87569,0.23452 38.91252,38.91252 0 0 1 -21.571,-66.24012 1.13968,1.13968 0 0 1 0.84842,-0.32419 z"
       fill="#e6e6e6"
       id="path9" />
    <path
       d="m 836.70297,231.54332 a 1.14293,1.14293 0 0 1 0.75164,0.37287 1.123,1.123 0 0 1 0.28748,0.85348 l -2.7233,32.43948 a 1.13343,1.13343 0 0 1 -1.995,0.63681 l -20.91133,-24.74412 a 1.13581,1.13581 0 0 1 0.18008,-1.63641 38.99426,38.99426 0 0 1 24.34015,-7.92579 c 0.0234,4.9e-4 0.047,0.002 0.0703,0.004 z"
       fill="#d8000d"
       id="path10" />
    <path
       d="m 818.31724,323.55574 a 6.94365,6.94365 0 1 1 -6.33844,-7.50019 6.95157,6.95157 0 0 1 6.33844,7.50019 z"
       fill="#d8000d"
       id="path11" />
    <path
       d="m 838.08672,325.21542 a 6.94365,6.94365 0 1 1 -6.33844,-7.5002 6.95156,6.95156 0 0 1 6.33844,7.5002 z"
       fill="#3f3d56"
       id="path12" />
    <path
       d="m 857.8562,326.87503 a 6.94365,6.94365 0 1 1 -6.33844,-7.50019 6.95157,6.95157 0 0 1 6.33844,7.50019 z"
       fill="#e6e6e6"
       id="path13" />
    <path
       d="m 734.42423,242.56654 -63.48665,-5.32972 a 4.7250076,4.7250076 0 1 0 -0.79055,9.41689 l 63.48665,5.32971 a 4.7250026,4.7250026 0 1 0 0.79055,-9.41688 z"
       fill="#e6e6e6"
       id="path14" />
    <path
       d="m 732.26423,268.29604 -63.48665,-5.32972 a 4.7216,4.7216 0 0 0 -2.689,8.836 4.66207,4.66207 0 0 0 1.89849,0.58084 l 63.48664,5.32972 a 4.7250076,4.7250076 0 1 0 0.79055,-9.41689 z"
       fill="#e6e6e6"
       id="path15" />
    <path
       d="m 730.10424,294.02554 -63.48666,-5.32972 a 4.7250076,4.7250076 0 1 0 -0.79055,9.41689 l 63.48664,5.32972 a 4.7250076,4.7250076 0 1 0 0.79055,-9.41689 z"
       fill="#e6e6e6"
       id="path16" />
    <path
       d="m 716.35741,241.04982 -45.41982,-3.813 a 4.7250076,4.7250076 0 1 0 -0.79055,9.41689 l 44.47344,3.73355 a 5.37929,5.37929 0 0 0 1.73693,-9.33744 z"
       fill="#d8000d"
       id="path17" />
    <path
       d="m 693.22139,265.01842 -24.44381,-2.0521 a 4.7216,4.7216 0 0 0 -2.689,8.836 l 22.4513,1.88479 a 5.38175,5.38175 0 0 0 5.81109,-4.91109 5.27063,5.27063 0 0 0 -1.12958,-3.7576 z"
       fill="#d8000d"
       id="path18" />
    <path
       d="m 725.36067,293.62732 -58.74309,-4.9315 a 4.7250076,4.7250076 0 1 0 -0.79055,9.41689 l 59.12162,4.96327 a 5.36761,5.36761 0 0 0 0.412,-9.44866 z"
       fill="#d8000d"
       id="path19" />
    <path
       d="m 889.38944,217.80082 a 10.74268,10.74268 0 0 0 7.44457,-14.69442 l 34.62093,-90.82569 -17.67316,-4.35235 -31.8042,89.74234 a 10.80091,10.80091 0 0 0 7.41184,20.13012 z"
       fill="#a0616a"
       id="path20" />
    <path
       d="m 933.11758,130.59028 a 5.319,5.319 0 0 1 -2.25391,-0.501 h -2.4e-4 l -22.03345,-10.31347 a 5.31849,5.31849 0 0 1 -2.1792,-7.752 l 13.39038,-20.222648 a 13.584,13.584 0 0 1 7.77637,-7.03516 13.88007,13.88007 0 0 1 17.2915,18.937498 l -6.898,23.09473 a 5.31747,5.31747 0 0 1 -5.0935,3.792 z"
       fill="#2f2e41"
       id="path21" />
    <path
       d="m 918.90123,219.35005 a 10.74272,10.74272 0 0 0 10.152,-12.97244 l 56.19618,-80.09735 -16.79449,-8.99955 -52.9225,80.88424 a 10.80091,10.80091 0 0 0 3.36879,21.1851 z"
       fill="#a0616a"
       id="path22" />
    <path
       d="m 979.73619,142.37251 a 5.31316,5.31316 0 0 1 -3.1438,-1.03028 l -19.616,-14.38965 a 5.31594,5.31594 0 0 1 -0.63549,-8.02539 l 17.05688,-17.24316 a 13.58422,13.58422 0 0 1 8.99268,-5.395508 13.88036,13.88036 0 0 1 13.29224,21.930668 l -11.24412,21.31835 a 5.31991,5.31991 0 0 1 -4.70239,2.835 z"
       fill="#2f2e41"
       id="path23" />
    <path
       d="m 623.96732,200.14118 a 10.05576,10.05576 0 0 1 -5.277,-14.48823 l -23.35887,-27.04334 18.41436,-2.3969 19.35885,26.04829 a 10.11027,10.11027 0 0 1 -9.13732,17.88018 z"
       fill="#ffb8b8"
       id="path24" />
    <path
       d="m 492.30321,205.8557 a 10.05577,10.05577 0 0 1 2.36251,-15.23727 l -7.42514,-34.95492 17.28821,6.77877 4.40057,32.15453 a 10.11027,10.11027 0 0 1 -16.62615,11.25889 z"
       fill="#ffb8b8"
       id="path25" />
    <polygon
       points="217.567,338.781 217.569,386.069 229.829,386.068 235.661,338.78 "
       fill="#ffb8b8"
       id="polygon25"
       transform="translate(358.39858,1.9591322)" />
    <path
       d="m 572.84018,384.02534 24.1438,-0.001 h 10e-4 a 15.38605,15.38605 0 0 1 15.38647,15.38623 v 0.5 l -39.53052,10e-4 z"
       fill="#2f2e41"
       id="path26" />
    <polygon
       points="157.567,338.781 157.569,386.069 169.829,386.068 175.661,338.78 "
       fill="#ffb8b8"
       id="polygon26"
       transform="translate(358.39858,1.9591322)" />
    <path
       d="m 512.84018,384.02534 24.1438,-0.001 h 10e-4 a 15.38605,15.38605 0 0 1 15.38647,15.38623 v 0.5 l -39.53052,10e-4 z"
       fill="#2f2e41"
       id="path27" />
    <path
       d="m 574.51232,363.33869 a 4.52551,4.52551 0 0 1 -4.46923,-3.957 L 557.505,256.05158 a 1.49976,1.49976 0 0 0 -2.96069,-0.10937 l -19.93506,101.40921 a 4.50994,4.50994 0 0 1 -4.41577,3.63183 h -14.634 a 4.49955,4.49955 0 0 1 -4.49926,-4.585 l 2.92895,-156.20214 0.23877,-0.14258 c 21.34766,-12.71094 46.50977,-13.543 76.926,-2.54 l 0.31933,0.11523 4.88941,160.37891 a 4.51414,4.51414 0 0 1 -4.31787,4.63379 l -17.35474,0.69433 c -0.0593,0.002 -0.11891,0.003 -0.17775,0.003 z"
       fill="#2f2e41"
       id="path28" />
    <circle
       cx="557.80658"
       cy="32.420231"
       r="24.561029"
       fill="#ffb8b8"
       id="circle28" />
    <path
       d="m 614.6513,180.8883 a 4.505,4.505 0 0 1 -3.52808,-1.00768 l -25.18508,-21.13438 a 46.37352,46.37352 0 0 1 -16.02389,-28.44082 l -5.66482,-36.601528 a 14.49652,14.49652 0 1 1 27.01712,-10.52 l 11.9859,57.510998 19.132,25.96774 a 4.51467,4.51467 0 0 1 0.11893,5.16938 l -4.7458,7.10161 a 4.50564,4.50564 0 0 1 -2.09059,1.68576 4.45444,4.45444 0 0 1 -1.01569,0.26892 z"
       fill="#d8000d"
       id="path29" />
    <path
       d="m 492.41184,182.75593 a 4.505,4.505 0 0 1 -1.98249,-3.08748 L 485.48858,147.164 a 46.37349,46.37349 0 0 1 6.76343,-31.93587 l 19.93125,-31.217098 a 14.49652,14.49652 0 1 1 27.23067,9.95418 l -29.00182,51.088888 -2.7964,32.13311 a 4.51469,4.51469 0 0 1 -3.32625,3.95888 l -8.25448,2.195 a 4.50565,4.50565 0 0 1 -2.68308,-0.11591 4.45476,4.45476 0 0 1 -0.94006,-0.46925 z"
       fill="#d8000d"
       id="path30" />
    <path
       d="m 584.67126,76.037482 a 41.82251,41.82251 0 0 0 -33.53711,-13.55957 q -0.616,0.0381 -1.22705,0.0859 h -5.2e-4 a 41.73428,41.73428 0 0 0 -30.15967,16.64649 42.362,42.362 0 0 0 -7.5249,34.144528 132.361,132.361 0 0 1 -3.49658,67.876 l -6.58887,20.459 a 4.49852,4.49852 0 0 0 4.042,5.87207 l 33.68506,1.811 8.62012,-14.88971 v 15.35323 l 40.94092,2.20111 c 0.0815,0.005 0.1626,0.007 0.24316,0.007 a 4.5,4.5 0 0 0 4.48389,-4.86133 l -4.62744,-57.38183 5.8042,-38.97266 A 42.08923,42.08923 0 0 0 584.67126,76.037642 Z"
       fill="#d8000d"
       id="path31" />
    <path
       d="m 540.73675,55.867232 c 2.274,1.30843 11.26246,2.176 11.90278,-0.36827 l 0.0137,-0.0559 c 0.44576,-1.86411 0.0756,-3.81068 -0.0523,-5.72308 -0.12793,-1.9124 0.0593,-4.01326 1.36175,-5.41937 2.428,-2.62114 6.74756,-1.23165 10.25844,-1.89439 a 8.66429,8.66429 0 0 0 6.74006,-9.25292 c -0.05,-0.3975 -0.12841,-0.79544 -0.21633,-1.19315 a 6.67288,6.67288 0 0 1 6.92676,-8.08129 c 3.5481,0.20288 7.378,1.27789 10.31357,-1.35012 2.2701,-2.03223 2.824,-7.32236 1.82653,-10.20133 -1.67623,-4.8383098 -12.4137,-7.3712498 -17.10185,-8.7636698 a 40.62027,40.62027 0 0 0 -34.43036,5.64954 c -2.96119,2.0872398 -5.72662,4.7098398 -6.98873,8.1057598 -1.26211,3.39592 -0.65323,7.68029 2.19277,9.92206 a 18.332,18.332 0 0 0 -4.24618,17.80643 c 1.40568,4.52945 8.11444,8.87203 11.4994,10.8197 z"
       fill="#2f2e41"
       id="path32" />
    <path
       d="m 1073.1119,220.87902 v 0 a 11.35767,11.35767 0 1 1 10.409,-12.233 11.35769,11.35769 0 0 1 -10.409,12.233 z m -0.1403,-1.74169 v 0 a 9.61034,9.61034 0 1 0 -10.351,-8.80764 9.61034,9.61034 0 0 0 10.351,8.80764 z"
       fill="#f2f2f2"
       id="path34" />
    <circle
       cx="1112.2208"
       cy="184.74687"
       r="6.9893398"
       fill="#f2f2f2"
       id="circle34" />
    <circle
       cx="1146.5759"
       cy="162.78824"
       r="3.6714301"
       fill="#f2f2f2"
       id="circle35" />
    <path
       d="m 759.73996,138.986 a 11.35768,11.35768 0 1 1 -3.45443,15.68631 v 0 a 11.37027,11.37027 0 0 1 3.45443,-15.68631 z m 11.291,17.66838 a 9.61034,9.61034 0 1 0 -13.273,-2.923 v 0 a 9.62121,9.62121 0 0 0 13.27296,2.92304 z"
       fill="#f2f2f2"
       id="path35" />
    <circle
       cx="761.43347"
       cy="101.67667"
       r="6.9893398"
       fill="#f2f2f2"
       id="circle36" />
    <circle
       cx="758.16296"
       cy="61.034843"
       r="3.6714301"
       fill="#f2f2f2"
       id="circle37" />
    <path
       d="m 450.46895,267.66584 a 11.35767,11.35767 0 1 1 15.77963,2.99951 v 0 a 11.37027,11.37027 0 0 1 -15.77963,-2.99951 z m 17.33458,-11.797 a 9.61034,9.61034 0 1 0 -2.538,13.352 v 0 a 9.62121,9.62121 0 0 0 2.53805,-13.35202 z"
       fill="#f2f2f2"
       id="path37" />
    <circle
       cx="413.12625"
       cy="267.05164"
       r="6.9893398"
       fill="#f2f2f2"
       id="circle38" />
    <circle
       cx="372.59595"
       cy="271.4957"
       r="3.6714301"
       fill="#f2f2f2"
       id="circle39" />
  </g>
</svg>
